# xmcd
#
# Track frame offsets:
#	150
#	14901
#	29766
#	44153
#	58029
#	72904
#	87600
#	102724
#	117113
#	131257
#	147378
#	162016
#	177269
#	193202
#	208034
#	223052
#	238949
#	253432
#
# Disc length: 3579 seconds
#
# Revision: 0
# Processed by: cddbd v1.5.2PL0 Copyright (c) Steve Scherf et al.
# Submitted via: EasyCDDAExtractor 16.0.6.1
#
DISCID=2c0df912
DTITLE=Συλλογικός δίσκος - Το λαϊκό τραγούδι 1946-1956 1
DYEAR=2009
DGENRE=Λαϊκή
TTITLE0=Παπαϊωάννου Γιάννης-Μοσχονάς Οδυσσέας - Απ' της Ζέας το λιμάνι [1946, 
TTITLE0=Γ. Παπαϊωάννου]
TTITLE1=Άνευ ερμηνευτού - Το μινόρε του Τσιτσάνη [1946, ορχ., Βασ. Τσιτσάνη]
TTITLE2=Ρούκουνας Κώστας ή Σαμιωτάκης - Η μπόμπα [1946, Κώστα Ρούκουνα]
TTITLE3=Μοσχονάς Οδυσσέας-Περπινιάδης Στελλάκης - Ντομίνα Μαργαρώ [1947, Γ. Πα
TTITLE3=παϊωάννου-Κώστα Μάνεση]
TTITLE4=Παγιουμτζής Στράτος-Τσιτσάνης Βασίλης - Δροσούλα [1946, Βασ. Τσιτσάνη]
TTITLE5=Τσαουσάκης Πρόδρομος-Μητσάκης Γιώργος - Ο ανάπηρος [1949, Γ. Μητσάκη]
TTITLE6=Χατζηχρήστος Απόστολος-Βαμβακάρης Μ.-Σταμούλης Γ. - Το μινόρε της αυγή
TTITLE6=ς [1947, Μ. Μάτσα-Σ. Περιστέρη]
TTITLE7=Μητσάκης Γιώργος-Μανησαλής Γιάννης - Ο λουλάς [1946, Γ. Μητσάκη]
TTITLE8=Χασκίλ Στέλλα-Μπίνης Τ.-Περπινιάδης Στελλάκης - Φυλακισμένη [1950, Μπά
TTITLE8=μπη Μπακάλη]
TTITLE9=Μητσάκης Γιώργος-Τατασσόπουλος Γιάννης - Δεν πειράζει [1953, Γ. Μητσάκ
TTITLE9=η]
TTITLE10=Χαρμαντάς Τόλης-Χαρμαντά Λίτσα (Ντούο Χάρμα) - Τζεμιλέ [1947, Μαν. Χι
TTITLE10=ώτη]
TTITLE11=Τζουανάκος Σταύρος-Κοφινιώτης Κώστας - Διαβάτης [1949, Στ. Τζουανάκου
TTITLE11=]
TTITLE12=Χαρμαντάς Τόλης-Χαρμαντά Λίτσα (Ντούο Χάρμα) - Μαγκίτισσα [1948, Τόλη
TTITLE12=Χάρμα]
TTITLE13=Μπέλλου Σωτηρία-Τσιτσάνης Βασίλης - Όταν πίνεις στην ταβέρνα [1947, Β
TTITLE13=ασ. Τσιτσάνη]
TTITLE14=Χατζηχρήστος ΑπόστολοςᾹγγελοπούλου Κική - Γλυκοβραδιάζει κι ο ντουνιά
TTITLE14=ς [1949, Απ. Χατζηχρήστου]
TTITLE15=Μητσάκης Γιώργος-Γεωργακοπούλου Ιωάννα - Όσο βαριά είν' τα σίδερα [19
TTITLE15=50, Γ. Μητσάκη]
TTITLE16=Μπέλλου Σωτηρία-Περπινιάδης Στελλάκης - Το παλτό [1948, Γ. Μητσάκη]
TTITLE17=Μπίνης Τάκης-Χασκίλ Σ.Λελάκης Γ. - Καρδιά παραπονιάρα [1950, Απ. Χατζ
TTITLE17=ηχρήστου]
EXTD=
EXTT0=
EXTT1=
EXTT2=
EXTT3=
EXTT4=
EXTT5=
EXTT6=
EXTT7=
EXTT8=
EXTT9=
EXTT10=
EXTT11=
EXTT12=
EXTT13=
EXTT14=
EXTT15=
EXTT16=
EXTT17=
PLAYORDER=
